<svg width="17" height="17" viewBox="0 0 17 17" fill="none" xmlns="http://www.w3.org/2000/svg">
<path d="M8.5 0C3.81315 0 0 3.81315 0 8.5C0 13.1869 3.81315 17 8.5 17C13.1869 17 17 13.1869 17 8.5C17 3.81315 13.1869 0 8.5 0ZM12.9237 5.65127L7.43137 12.1897C7.37112 12.2615 7.29616 12.3195 7.21155 12.3597C7.12694 12.4 7.03467 12.4216 6.94099 12.4231H6.92995C6.83831 12.423 6.74769 12.4037 6.66398 12.3664C6.58028 12.3291 6.50535 12.2746 6.44406 12.2065L4.09022 9.59111C4.03044 9.5277 3.98393 9.45299 3.95344 9.37136C3.92295 9.28972 3.90908 9.20282 3.91266 9.11575C3.91623 9.02868 3.93717 8.94321 3.97425 8.86435C4.01133 8.78549 4.0638 8.71484 4.12858 8.65654C4.19335 8.59825 4.26912 8.5535 4.35144 8.52491C4.43376 8.49632 4.52096 8.48447 4.60793 8.49007C4.69489 8.49566 4.77985 8.51858 4.85783 8.55748C4.93581 8.59638 5.00522 8.65048 5.062 8.71659L6.91279 10.7729L11.9225 4.81026C12.0348 4.68035 12.1938 4.59986 12.3651 4.58622C12.5363 4.57258 12.706 4.62686 12.8376 4.73735C12.9691 4.84783 13.0518 5.00564 13.068 5.17665C13.0841 5.34767 13.0323 5.51816 12.9237 5.65127Z" fill="#2FBE34"/>
</svg>
