<svg width="17" height="17" viewBox="0 0 17 17" fill="none" xmlns="http://www.w3.org/2000/svg">
<path d="M8.5 0C3.81315 0 0 3.81315 0 8.5C0 13.1869 3.81315 17 8.5 17C13.1869 17 17 13.1869 17 8.5C17 3.81315 13.1869 0 8.5 0ZM11.5776 10.6532C11.6408 10.7133 11.6914 10.7855 11.7264 10.8655C11.7613 10.9454 11.7799 11.0316 11.781 11.1189C11.7821 11.2061 11.7658 11.2927 11.7329 11.3736C11.7 11.4544 11.6513 11.5278 11.5896 11.5896C11.5278 11.6513 11.4544 11.7 11.3736 11.7329C11.2927 11.7658 11.2061 11.7821 11.1189 11.781C11.0316 11.7799 10.9454 11.7613 10.8655 11.7264C10.7855 11.6914 10.7133 11.6408 10.6532 11.5776L8.5 9.42478L6.3468 11.5776C6.22319 11.695 6.05858 11.7595 5.88808 11.7573C5.71758 11.7552 5.55468 11.6865 5.43411 11.5659C5.31354 11.4453 5.24484 11.2824 5.24266 11.1119C5.24048 10.9414 5.30498 10.7768 5.42243 10.6532L7.57522 8.5L5.42243 6.3468C5.30498 6.22319 5.24048 6.05858 5.24266 5.88808C5.24484 5.71758 5.31354 5.55468 5.43411 5.43411C5.55468 5.31354 5.71758 5.24484 5.88808 5.24266C6.05858 5.24048 6.22319 5.30498 6.3468 5.42243L8.5 7.57522L10.6532 5.42243C10.7768 5.30498 10.9414 5.24048 11.1119 5.24266C11.2824 5.24484 11.4453 5.31354 11.5659 5.43411C11.6865 5.55468 11.7552 5.71758 11.7573 5.88808C11.7595 6.05858 11.695 6.22319 11.5776 6.3468L9.42478 8.5L11.5776 10.6532Z" fill="#FF3030"/>
</svg>
