<svg width="13" height="15" viewBox="0 0 13 15" fill="none" xmlns="http://www.w3.org/2000/svg">
<path d="M0 1.81181C9.80003e-05 1.49442 0.079995 1.18263 0.231698 0.907627C0.383401 0.632621 0.60159 0.404043 0.864436 0.244762C1.12728 0.0854812 1.42557 0.00108273 1.72945 1.03485e-05C2.03334 -0.00106204 2.33216 0.0812293 2.59603 0.238651L12.1264 5.92594C12.3918 6.08452 12.6124 6.31353 12.7658 6.58979C12.9192 6.86605 13 7.17974 13 7.49909C13 7.81845 12.9192 8.13214 12.7658 8.4084C12.6124 8.68466 12.3918 8.91367 12.1264 9.07225L2.59603 14.7613C2.33216 14.9188 2.03334 15.0011 1.72945 15C1.42557 14.9989 1.12728 14.9145 0.864436 14.7552C0.60159 14.596 0.383401 14.3674 0.231698 14.0924C0.079995 13.8174 9.80003e-05 13.5056 0 13.1882V1.81181ZM11.2657 7.49909L1.73531 1.81181V13.1882L11.2657 7.49909Z" fill="#333333"/>
</svg>
