<svg width="17" height="17" viewBox="0 0 17 17" fill="none" xmlns="http://www.w3.org/2000/svg">
<path d="M8.5 0C3.80729 0 0 3.80729 0 8.5C0 13.1927 3.80729 17 8.5 17C13.1927 17 17 13.1927 17 8.5C17 3.80729 13.1927 0 8.5 0ZM8.23438 13.4583C8.05926 13.4583 7.88807 13.4064 7.74246 13.3091C7.59686 13.2118 7.48337 13.0735 7.41636 12.9117C7.34934 12.75 7.33181 12.5719 7.36597 12.4002C7.40014 12.2284 7.48446 12.0707 7.60829 11.9468C7.73212 11.823 7.88988 11.7387 8.06164 11.7045C8.23339 11.6704 8.41142 11.6879 8.57321 11.7549C8.735 11.8219 8.87328 11.9354 8.97057 12.081C9.06786 12.2266 9.11979 12.3978 9.11979 12.5729C9.11979 12.8077 9.02651 13.033 8.86046 13.199C8.69441 13.365 8.4692 13.4583 8.23438 13.4583ZM9.71479 8.94271C8.99716 9.42437 8.89844 9.86576 8.89844 10.2708C8.89844 10.4352 8.83314 10.5929 8.7169 10.7091C8.60067 10.8253 8.44302 10.8906 8.27865 10.8906C8.11427 10.8906 7.95662 10.8253 7.84039 10.7091C7.72415 10.5929 7.65885 10.4352 7.65885 10.2708C7.65885 9.30086 8.1051 8.52966 9.02328 7.91297C9.87682 7.3401 10.3594 6.97708 10.3594 6.17888C10.3594 5.63612 10.0495 5.22396 9.408 4.91893C9.25703 4.84721 8.92102 4.77727 8.50753 4.78214C7.98867 4.78878 7.58581 4.91273 7.27547 5.16242C6.69021 5.63346 6.64062 6.14612 6.64062 6.15365C6.6367 6.23504 6.61678 6.31486 6.58201 6.38856C6.54724 6.46225 6.49829 6.52837 6.43796 6.58315C6.37763 6.63793 6.30711 6.68029 6.23041 6.70781C6.15371 6.73533 6.07234 6.74748 5.99095 6.74355C5.90956 6.73963 5.82974 6.71971 5.75604 6.68494C5.68235 6.65017 5.61622 6.60122 5.56144 6.54089C5.50667 6.48056 5.46431 6.41004 5.43678 6.33334C5.40926 6.25664 5.39712 6.17527 5.40104 6.09388C5.40591 5.9863 5.48073 5.01721 6.49763 4.19909C7.0249 3.77497 7.6956 3.55451 8.48982 3.54477C9.05206 3.53813 9.58021 3.63331 9.93836 3.80242C11.0102 4.30932 11.599 5.15445 11.599 6.17888C11.599 7.67656 10.598 8.34904 9.71479 8.94271Z" fill="#FF922E"/>
</svg>
